<?xml version="1.0" encoding="UTF-8" standalone="no"?>
<svg width="600px" height="126px" viewBox="0 0 600 126" version="1.1" xmlns="http://www.w3.org/2000/svg" xmlns:xlink="http://www.w3.org/1999/xlink" xmlns:sketch="http://www.bohemiancoding.com/sketch/ns">
    <!-- Generator: Sketch 3.3.1 (12005) - http://www.bohemiancoding.com/sketch -->
    <title>logo</title>
    <desc>Created with Sketch.</desc>
    <defs></defs>
    <g id="Page-1" stroke="none" stroke-width="1" fill="none" fill-rule="evenodd" sketch:type="MSPage">
        <g id="logo" sketch:type="MSLayerGroup" transform="translate(14.000000, 14.000000)">
            <g id="Page-1" sketch:type="MSShapeGroup">
                <g id="LOGOS">
                    <g id="Choice-Bro-+-Imported-Layers-Copy-3">
                        <g id="Choice-Bro" transform="translate(140.000000, 23.000000)" fill="#FFFFFF">
                            <path d="M52.9413076,4.92165422 C46.4942053,3.20242694 39.7032575,2.25685193 32.6544257,2.25685193 C13.141196,2.25685193 0.246991391,14.4633656 0.246991391,32.6871748 C0.246991391,51.0829068 13.141196,63.2894205 32.4825029,63.2894205 C39.0155666,63.2894205 46.4942053,62 53.1991917,60.0228886 L51.3080417,50.9969454 C44.2592098,52.6302113 37.5542234,53.5757863 32.9982711,53.5757863 C19.8461824,53.5757863 11.1640846,45.1515726 11.1640846,32.6012135 C11.1640846,20.9104679 19.0725301,12.2283702 34.0298075,12.2283702 C38.8436439,12.2283702 44.1732485,13.0879838 51.0501576,14.6352884 L52.9413076,4.92165422 Z M87.4118146,20.0508543 C83.3716305,20.0508543 78.5577941,20.4806611 74.0018418,21.3402748 L74.0018418,0.967431469 L64.1162849,0.967431469 L64.1162849,62 L74.0018418,62 L74.0018418,30.366218 C77.9560646,29.5066044 81.7383646,29.0767975 85.2627805,29.0767975 C90.8502692,29.0767975 94.6325692,32.8590976 94.6325692,38.7044703 L94.6325692,62 L104.518126,62 L104.518126,35.8677453 C104.518126,26.2400725 97.7271783,20.0508543 87.4118146,20.0508543 L87.4118146,20.0508543 Z M136.581715,19.5350861 C122.999819,19.5350861 113.801953,28.3031453 113.801953,41.3692726 C113.801953,54.693284 122.999819,63.5473046 136.581715,63.5473046 C150.077649,63.5473046 159.275515,54.693284 159.275515,41.3692726 C159.275515,28.3031453 150.077649,19.5350861 136.581715,19.5350861 L136.581715,19.5350861 Z M136.581715,54.5213613 C128.931153,54.5213613 123.773472,49.2777181 123.773472,41.3692726 C123.773472,33.6327498 128.931153,28.5610294 136.581715,28.5610294 C144.146315,28.5610294 149.218035,33.6327498 149.218035,41.3692726 C149.218035,49.2777181 144.146315,54.5213613 136.581715,54.5213613 L136.581715,54.5213613 Z M173.802986,14.3774043 C177.413363,14.3774043 180.422011,11.6266406 180.422011,7.93030196 C180.422011,4.06204058 177.413363,1.31127693 173.802986,1.31127693 C170.106647,1.31127693 167.183961,4.06204058 167.183961,7.93030196 C167.183961,11.6266406 170.106647,14.3774043 173.802986,14.3774043 L173.802986,14.3774043 Z M178.788745,21.3402748 L168.903188,21.3402748 L168.903188,62 L178.788745,62 L178.788745,21.3402748 Z M225.723649,21.856043 C221.253659,20.3946998 215.66617,19.7070088 211.625986,19.7070088 C197.786206,19.7070088 188.416417,28.0452612 188.416417,41.3692726 C188.416417,54.693284 197.872168,63.2894205 211.196179,63.2894205 C215.752131,63.2894205 221.33962,62.2578841 225.895572,60.7105795 L224.52019,52.7161727 C219.706354,53.9196318 214.806556,54.6073227 211.797909,54.6073227 C203.803502,54.6073227 198.216013,49.5356022 198.216013,41.455234 C198.216013,33.4608271 203.71754,28.0452612 212.571561,28.0452612 C215.494247,28.0452612 219.620393,28.7329521 224.348268,29.7644885 L225.723649,21.856043 Z M253.231286,19.9648929 C241.024772,19.9648929 231.826906,28.3891066 231.826906,41.6271567 C231.826906,53.8336704 239.735352,63.2894205 255.036475,63.2894205 C259.850311,63.2894205 264.922032,62.2578841 271.283172,60.2807727 L269.907791,52.2004045 C263.288766,53.6617477 258.990697,54.4354 255.294359,54.4354 C248.331488,54.4354 243.861497,50.910984 242.400154,45.4094567 L272.486632,45.4094567 C273.0024,42.3148476 273.088361,41.455234 273.088361,37.930818 C272.916438,27.0996862 264.664147,19.9648929 253.231286,19.9648929 L253.231286,19.9648929 Z M253.403209,27.7873771 C259.506466,27.7873771 263.890495,31.7415998 264.148379,37.8448567 L242.056309,37.8448567 C243.001884,31.7415998 247.213991,27.7873771 253.403209,27.7873771 L253.403209,27.7873771 Z M337.90323,32.1714066 C344.694177,30.366218 348.734362,25.2085362 348.734362,18.5035498 C348.734362,8.61799288 341.427646,3.11646557 328.275557,3.11646557 C320.367111,3.11646557 310.137709,3.37434966 304.55022,3.54627239 L304.55022,62 C310.395593,62.3438455 322.086339,62.7736523 329.393055,62.7736523 C343.146873,62.7736523 351.571087,56.8423182 351.571087,45.9252249 C351.571087,39.0483158 346.327443,33.8046726 337.90323,32.1714066 L337.90323,32.1714066 Z M327.072098,12.1424088 C335.066505,12.1424088 339.020727,14.4633656 339.020727,20.0508543 C339.020727,25.2085362 334.808621,28.475068 328.189596,28.475068 L314.865584,28.475068 L314.865584,12.3143315 C318.905768,12.3143315 323.203836,12.1424088 327.072098,12.1424088 L327.072098,12.1424088 Z M328.189596,53.6617477 C324.407296,53.6617477 319.593459,53.489825 314.865584,53.3179022 L314.865584,37.2431271 L329.994784,37.2431271 C336.871693,37.2431271 341.427646,39.9938908 341.427646,45.0656113 C341.427646,50.9969454 336.613809,53.6617477 328.189596,53.6617477 L328.189596,53.6617477 Z M386.901207,20.0508543 C379.164684,20.0508543 368.935282,21.2543134 361.88645,22.5437339 L361.88645,62 L371.772007,62 L371.772007,30.366218 C376.757766,29.9364112 381.657564,29.7644885 386.901207,29.7644885 L386.901207,20.0508543 Z M414.15096,19.5350861 C400.569064,19.5350861 391.371198,28.3031453 391.371198,41.3692726 C391.371198,54.693284 400.569064,63.5473046 414.15096,63.5473046 C427.646894,63.5473046 436.84476,54.693284 436.84476,41.3692726 C436.84476,28.3031453 427.646894,19.5350861 414.15096,19.5350861 L414.15096,19.5350861 Z M414.15096,54.5213613 C406.500398,54.5213613 401.342716,49.2777181 401.342716,41.3692726 C401.342716,33.6327498 406.500398,28.5610294 414.15096,28.5610294 C421.71556,28.5610294 426.78728,33.6327498 426.78728,41.3692726 C426.78728,49.2777181 421.71556,54.5213613 414.15096,54.5213613 L414.15096,54.5213613 Z"></path>
                        </g>
                        <g id="Imported-Layers-Copy-2" transform="translate(0.703905, 0.659850)">
                            <path d="M93.5884799,22.4089195 L38.4783031,22.4089195 C34.8364963,22.4089195 31.8851107,19.4562818 31.8851107,15.815651 L31.8851107,6.71958653 C31.8851107,3.07675054 34.8364963,0.126318008 38.4783031,0.126318008 L93.5884799,0.126318008 C97.2302868,0.126318008 100.181672,3.07675054 100.181672,6.71958653 L100.181672,15.815651 C100.181672,19.4562818 97.2302868,22.4089195 93.5884799,22.4089195" id="Fill-1" fill="#69D2E7"></path>
                            <path d="M93.5884799,58.6608708 L38.4783031,58.6608708 C34.8364963,58.6608708 31.8851107,55.7082332 31.8851107,52.0676023 L31.8851107,42.9715378 C31.8851107,39.330907 34.8364963,36.3782693 38.4783031,36.3782693 L93.5884799,36.3782693 C97.2302868,36.3782693 100.181672,39.330907 100.181672,42.9715378 L100.181672,52.0676023 C100.181672,55.7082332 97.2302868,58.6608708 93.5884799,58.6608708" id="Fill-2" fill="#A7DBD8"></path>
                            <path d="M93.5884799,94.9128221 L38.4783031,94.9128221 C34.8364963,94.9128221 31.8851107,91.9623896 31.8851107,88.3195536 L31.8851107,79.2234892 C31.8851107,75.5828583 34.8364963,72.6302207 38.4783031,72.6302207 L93.5884799,72.6302207 C97.2302868,72.6302207 100.181672,75.5828583 100.181672,79.2234892 L100.181672,88.3195536 C100.181672,91.9623896 97.2302868,94.9128221 93.5884799,94.9128221" id="Fill-3" fill="#FA6900"></path>
                            <path d="M0.253669162,35.502842 L0.253669162,58.6167687 C0.253669162,61.2915629 3.36607948,62.7579587 5.43072588,61.0578216 L19.5214964,49.4523459 C21.0302764,48.2086659 21.0302764,45.8977142 19.5192905,44.6562392 L5.42852006,33.059584 C3.36387367,31.361652 0.253669162,32.8302529 0.253669162,35.502842" id="Fill-4" fill="#FFFFFF"></path>
                        </g>
                    </g>
                </g>
            </g>
        </g>
    </g>
</svg>