<?xml version="1.0" encoding="UTF-8" standalone="no"?>
<svg width="200px" height="44px" viewBox="0 0 200 44" version="1.1" xmlns="http://www.w3.org/2000/svg" xmlns:xlink="http://www.w3.org/1999/xlink" xmlns:sketch="http://www.bohemiancoding.com/sketch/ns">
    <!-- Generator: Sketch 3.3.1 (12005) - http://www.bohemiancoding.com/sketch -->
    <title>logo_small</title>
    <desc>Created with Sketch.</desc>
    <defs></defs>
    <g id="Page-1" stroke="none" stroke-width="1" fill="none" fill-rule="evenodd" sketch:type="MSPage">
        <g id="logo" sketch:type="MSLayerGroup" transform="translate(0.000000, 5.000000)">
            <g id="Page-1" sketch:type="MSShapeGroup">
                <g id="logo">
                    <g id="Page-1">
                        <g id="LOGOS">
                            <g id="Choice-Bro-+-Imported-Layers-Copy-3">
                                <g id="Choice-Bro" transform="translate(48.041594, 7.906250)" fill="#FFFFFF">
                                    <path d="M18.1670345,1.69181864 C15.954684,1.10083426 13.6243414,0.775792851 11.2055048,0.775792851 C4.50945721,0.775792851 0.0847561446,4.97178193 0.0847561446,11.2362163 C0.0847561446,17.5597492 4.50945721,21.7557383 11.1465088,21.7557383 C13.3883573,21.7557383 15.954684,21.3125 18.2555285,20.632868 L17.6065724,17.5302 C15.1877358,18.0916351 12.8868912,18.4166765 11.3234968,18.4166765 C6.81030176,18.4166765 3.83100303,15.5208531 3.83100303,11.2066671 C3.83100303,7.18797334 6.54481969,4.20350226 11.6774729,4.20350226 C13.3293613,4.20350226 15.1582378,4.49899443 17.5180783,5.03088039 L18.1670345,1.69181864 L18.1670345,1.69181864 Z M29.9957353,6.89248117 C28.609329,6.89248117 26.9574406,7.04022725 25.3940462,7.33571946 L25.3940462,0.332554567 L22.0017754,0.332554567 L22.0017754,21.3125 L25.3940462,21.3125 L25.3940462,10.4383874 C26.7509546,10.1428953 28.0488669,9.99514914 29.2582852,9.99514914 C31.1756556,9.99514914 32.4735679,11.2953148 32.4735679,13.3046617 L32.4735679,21.3125 L35.8658387,21.3125 L35.8658387,12.3295374 C35.8658387,9.02002492 33.5354962,6.89248117 29.9957353,6.89248117 L29.9957353,6.89248117 L29.9957353,6.89248117 Z M46.8685954,6.71518585 C42.2079102,6.71518585 39.0516234,9.7292062 39.0516234,14.2206875 C39.0516234,18.8008164 42.2079102,21.844386 46.8685954,21.844386 C51.4997825,21.844386 54.6560693,18.8008164 54.6560693,14.2206875 C54.6560693,9.7292062 51.4997825,6.71518585 46.8685954,6.71518585 L46.8685954,6.71518585 L46.8685954,6.71518585 Z M46.8685954,18.7417179 C44.2432726,18.7417179 42.4733925,16.9392156 42.4733925,14.2206875 C42.4733925,11.5612577 44.2432726,9.81785386 46.8685954,9.81785386 C49.4644201,9.81785386 51.2048023,11.5612577 51.2048023,14.2206875 C51.2048023,16.9392156 49.4644201,18.7417179 46.8685954,18.7417179 L46.8685954,18.7417179 L46.8685954,18.7417179 Z M59.6412326,4.94223273 C60.8801488,4.94223273 61.9125792,3.99665771 61.9125792,2.7260413 C61.9125792,1.39632645 60.8801488,0.450751445 59.6412326,0.450751445 C58.3728182,0.450751445 57.3698861,1.39632645 57.3698861,2.7260413 C57.3698861,3.99665771 58.3728182,4.94223273 59.6412326,4.94223273 L59.6412326,4.94223273 L59.6412326,4.94223273 Z M61.352117,7.33571946 L57.9598461,7.33571946 L57.9598461,21.3125 L61.352117,21.3125 L61.352117,7.33571946 L61.352117,7.33571946 Z M77.4580286,7.51301478 C75.9241326,7.01067806 74.006762,6.77428427 72.6203557,6.77428427 C67.8711764,6.77428427 64.6558935,9.64055854 64.6558935,14.2206875 C64.6558935,18.8008164 67.9006746,21.7557383 72.4728656,21.7557383 C74.0362599,21.7557383 75.9536304,21.4011477 77.5170247,20.8692617 L77.0450565,18.1211844 C75.3931683,18.5348734 73.7117818,18.7712672 72.6793518,18.7712672 C69.9360371,18.7712672 68.0186665,17.0278633 68.0186665,14.2502367 C68.0186665,11.5021593 69.9065389,9.64055854 72.9448338,9.64055854 C73.9477659,9.64055854 75.3636704,9.87695228 76.9860608,10.2315429 L77.4580286,7.51301478 L77.4580286,7.51301478 Z M86.897391,6.86293193 C82.7086739,6.86293193 79.5523872,9.75875539 79.5523872,14.3093351 C79.5523872,18.5053242 82.266204,21.7557383 87.5168493,21.7557383 C89.1687376,21.7557383 90.9091202,21.4011477 93.0919724,20.7215156 L92.6200045,17.943889 C90.348658,18.4462258 88.8737574,18.7121688 87.6053433,18.7121688 C85.2160045,18.7121688 83.6821082,17.5006508 83.1806421,15.6095007 L93.5049448,15.6095007 C93.6819328,14.5457289 93.7114306,14.2502367 93.7114306,13.0387187 C93.6524345,9.31551713 90.8206258,6.86293193 86.897391,6.86293193 L86.897391,6.86293193 L86.897391,6.86293193 Z M86.9563871,9.55191088 C89.0507457,9.55191088 90.5551439,10.9111749 90.6436379,13.0091695 L83.0626502,13.0091695 C83.3871283,10.9111749 84.8325307,9.55191088 86.9563871,9.55191088 L86.9563871,9.55191088 L86.9563871,9.55191088 Z M115.952928,11.058921 C118.28327,10.4383874 119.669677,8.66543432 119.669677,6.36059524 C119.669677,2.96243505 117.162346,1.07128504 112.649151,1.07128504 C109.935334,1.07128504 106.425072,1.1599327 104.507701,1.21903113 L104.507701,21.3125 C106.513566,21.4306969 110.525295,21.578443 113.032625,21.578443 C117.752307,21.578443 120.643111,19.5395469 120.643111,15.7867961 C120.643111,13.4228586 118.843733,11.6203562 115.952928,11.058921 L115.952928,11.058921 L115.952928,11.058921 Z M112.236179,4.17395302 C114.979494,4.17395302 116.336402,4.97178193 116.336402,6.89248117 C116.336402,8.66543432 114.891,9.78830462 112.619653,9.78830462 L108.047462,9.78830462 L108.047462,4.23305145 C109.433868,4.23305145 110.908769,4.17395302 112.236179,4.17395302 L112.236179,4.17395302 L112.236179,4.17395302 Z M112.619653,18.4462258 C111.321741,18.4462258 109.669852,18.3871273 108.047462,18.3280289 L108.047462,12.8023249 L113.239111,12.8023249 C115.598952,12.8023249 117.162346,13.7479 117.162346,15.4913039 C117.162346,17.5302 115.510458,18.4462258 112.619653,18.4462258 L112.619653,18.4462258 L112.619653,18.4462258 Z M132.766792,6.89248117 C130.111971,6.89248117 126.601709,7.30617023 124.182872,7.74940853 L124.182872,21.3125 L127.575143,21.3125 L127.575143,10.4383874 C129.286027,10.2906413 130.967414,10.2315429 132.766792,10.2315429 L132.766792,6.89248117 L132.766792,6.89248117 Z M142.11766,6.71518585 C137.456975,6.71518585 134.300688,9.7292062 134.300688,14.2206875 C134.300688,18.8008164 137.456975,21.844386 142.11766,21.844386 C146.748848,21.844386 149.905134,18.8008164 149.905134,14.2206875 C149.905134,9.7292062 146.748848,6.71518585 142.11766,6.71518585 L142.11766,6.71518585 L142.11766,6.71518585 Z M142.11766,18.7417179 C139.492338,18.7417179 137.722457,16.9392156 137.722457,14.2206875 C137.722457,11.5612577 139.492338,9.81785386 142.11766,9.81785386 C144.713485,9.81785386 146.453867,11.5612577 146.453867,14.2206875 C146.453867,16.9392156 144.713485,18.7417179 142.11766,18.7417179 L142.11766,18.7417179 L142.11766,18.7417179 Z" id="Shape"></path>
                                </g>
                                <g id="Imported-Layers-Copy-2" transform="translate(0.241548, 0.226823)">
                                    <path d="M32.1152843,7.70306608 L13.2039931,7.70306608 C11.9542916,7.70306608 10.9415111,6.68809687 10.9415111,5.43663003 L10.9415111,2.30985787 C10.9415111,1.057633 11.9542916,0.0434218152 13.2039931,0.0434218152 L32.1152843,0.0434218152 C33.3649858,0.0434218152 34.3777661,1.057633 34.3777661,2.30985787 L34.3777661,5.43663003 C34.3777661,6.68809687 33.3649858,7.70306608 32.1152843,7.70306608" id="Fill-1" fill="#69D2E7"></path>
                                    <path d="M32.1152843,20.1646743 L13.2039931,20.1646743 C11.9542916,20.1646743 10.9415111,19.1497052 10.9415111,17.8982383 L10.9415111,14.7714661 C10.9415111,13.5199993 11.9542916,12.5050301 13.2039931,12.5050301 L32.1152843,12.5050301 C33.3649858,12.5050301 34.3777661,13.5199993 34.3777661,14.7714661 L34.3777661,17.8982383 C34.3777661,19.1497052 33.3649858,20.1646743 32.1152843,20.1646743" id="Fill-2" fill="#A7DBD8"></path>
                                    <path d="M32.1152843,32.6262826 L13.2039931,32.6262826 C11.9542916,32.6262826 10.9415111,31.6120714 10.9415111,30.3598466 L10.9415111,27.2330744 C10.9415111,25.9816075 11.9542916,24.9666384 13.2039931,24.9666384 L32.1152843,24.9666384 C33.3649858,24.9666384 34.3777661,25.9816075 34.3777661,27.2330744 L34.3777661,30.3598466 C34.3777661,31.6120714 33.3649858,32.6262826 32.1152843,32.6262826" id="Fill-3" fill="#FA6900"></path>
                                    <path d="M0.08704765,12.2041019 L0.08704765,20.1495142 C0.08704765,21.0689747 1.15508447,21.5730483 1.86357665,20.9886262 L6.69888438,16.9992439 C7.21662864,16.5717289 7.21662864,15.7773393 6.69812742,15.3505822 L1.86281971,11.364232 C1.15432753,10.7805679 0.08704765,11.2853994 0.08704765,12.2041019" id="Fill-4" fill="#FFFFFF"></path>
                                </g>
                            </g>
                        </g>
                    </g>
                </g>
            </g>
        </g>
    </g>
</svg>