<?xml version="1.0" encoding="utf-8"?>
<!-- Generator: Adobe Illustrator 16.0.4, SVG Export Plug-In . SVG Version: 6.00 Build 0)  -->
<!DOCTYPE svg PUBLIC "-//W3C//DTD SVG 1.1//EN" "http://www.w3.org/Graphics/SVG/1.1/DTD/svg11.dtd">
<svg version="1.1" id="US_UK_Download_on_the" xmlns="http://www.w3.org/2000/svg" xmlns:xlink="http://www.w3.org/1999/xlink"
	 x="0px" y="0px" width="260px" height="80px" viewBox="0 0 260 80" enable-background="new 0 0 260 80" xml:space="preserve">
<g>
	<path fill="#E8782D" d="M248.922,77.74H12.011c-4.952,0-8.892-4.06-8.892-8.893V11.152c0-4.953,4.061-8.892,8.892-8.892h236.911
		c4.953,0,9.097,4.06,9.097,8.892v57.695C258.018,73.802,253.875,77.74,248.922,77.74L248.922,77.74z"/>
	<path fill="#F38630" d="M256.232,68.849c0,3.938-3.25,7.226-7.229,7.226H12.093c-3.94,0-7.228-3.246-7.228-7.226V11.154
		c0-3.938,3.248-7.228,7.228-7.228h236.913c4.06,0,7.228,3.249,7.228,7.228L256.232,68.849L256.232,68.849z"/>
	<g>
		<g>
			<path fill="#FFFFFF" d="M60.043,39.615c-0.08-6.132,4.953-9.095,5.237-9.176c-2.883-4.143-7.308-4.751-8.81-4.751
				c-3.735-0.405-7.308,2.193-9.176,2.193c-1.99,0-4.832-2.193-7.999-2.07c-4.061,0.08-7.795,2.354-9.866,6.007
				c-4.263,7.432-1.097,18.272,2.963,24.321c2.072,2.965,4.468,6.212,7.592,6.131c3.047-0.079,4.264-1.987,7.918-1.987
				s4.75,1.987,7.917,1.866c3.248-0.082,5.319-2.966,7.308-5.927c2.354-3.371,3.371-6.7,3.371-6.823
				C66.338,49.279,60.043,46.923,60.043,39.615z"/>
			<path fill="#FFFFFF" d="M53.994,21.711c1.665-2.072,2.762-4.834,2.477-7.715c-2.355,0.082-5.318,1.664-7.105,3.653
				c-1.504,1.786-2.884,4.75-2.558,7.431C49.446,25.283,52.207,23.699,53.994,21.711z"/>
		</g>
	</g>
	<g>
		<path fill="#FFFFFF" d="M104.381,61.744h-4.265l-2.354-7.432h-8.201l-2.273,7.432h-4.142l8.12-25.094h5.035L104.381,61.744z
			 M97.072,51.27l-2.193-6.539c-0.203-0.688-0.688-2.271-1.299-4.75h-0.082c-0.283,1.098-0.688,2.682-1.177,4.75L90.25,51.27H97.072
			z"/>
		<path fill="#FFFFFF" d="M125.252,52.445c0,3.045-0.772,5.521-2.479,7.309c-1.503,1.582-3.37,2.354-5.521,2.354
			c-2.354,0-4.143-0.893-5.156-2.557h-0.082v9.581h-4.061V49.564c0-1.99-0.082-3.939-0.203-5.929h3.573l0.203,2.884h0.082
			c1.38-2.193,3.37-3.249,6.13-3.249c2.193,0,3.939,0.892,5.321,2.558C124.559,47.41,125.252,49.684,125.252,52.445z
			 M121.068,52.526c0-1.784-0.406-3.245-1.178-4.344c-0.893-1.177-2.07-1.786-3.452-1.786c-0.974,0-1.868,0.284-2.679,0.975
			c-0.771,0.689-1.379,1.502-1.584,2.558c-0.08,0.487-0.203,0.894-0.203,1.178v3.046c0,1.299,0.406,2.477,1.177,3.369
			c0.771,0.895,1.867,1.383,3.167,1.383c1.503,0,2.68-0.611,3.572-1.789C120.703,56.02,121.068,54.518,121.068,52.526z"/>
		<path fill="#FFFFFF" d="M146.078,52.445c0,3.045-0.771,5.521-2.478,7.309c-1.501,1.582-3.367,2.354-5.521,2.354
			c-2.354,0-4.143-0.893-5.158-2.557h-0.08v9.581h-4.06V49.564c0-1.99-0.083-3.939-0.202-5.929h3.571l0.202,2.884h0.082
			c1.381-2.193,3.369-3.249,6.131-3.249c2.191,0,3.938,0.892,5.318,2.558C145.307,47.41,146.078,49.684,146.078,52.445z
			 M141.938,52.526c0-1.784-0.407-3.245-1.178-4.344c-0.896-1.177-2.07-1.786-3.451-1.786c-0.977,0-1.867,0.284-2.682,0.975
			c-0.771,0.689-1.379,1.502-1.582,2.558c-0.082,0.487-0.203,0.894-0.203,1.178v3.046c0,1.299,0.406,2.477,1.179,3.369
			c0.771,0.895,1.866,1.383,3.165,1.383c1.504,0,2.68-0.611,3.574-1.789C141.53,56.02,141.938,54.518,141.938,52.526z"/>
		<path fill="#FFFFFF" d="M169.385,54.719c0,2.191-0.772,3.857-2.273,5.238c-1.664,1.502-3.938,2.191-6.822,2.191
			c-2.679,0-4.83-0.488-6.535-1.583l0.894-3.37c1.786,1.096,3.735,1.584,5.849,1.584c1.5,0,2.678-0.283,3.571-0.976
			c0.894-0.69,1.3-1.582,1.3-2.761c0-0.976-0.406-1.867-1.097-2.557c-0.69-0.693-1.867-1.383-3.451-1.99
			c-4.467-1.666-6.618-4.062-6.618-7.228c0-2.071,0.771-3.735,2.271-5.036c1.584-1.299,3.572-1.988,6.134-1.988
			c2.272,0,4.14,0.404,5.726,1.177l-0.976,3.247c-1.381-0.771-3.044-1.176-4.833-1.176c-1.379,0-2.557,0.404-3.369,1.095
			c-0.691,0.608-0.977,1.381-0.977,2.274c0,0.976,0.408,1.785,1.179,2.479c0.688,0.605,1.866,1.297,3.653,1.988
			c2.193,0.893,3.734,1.865,4.752,3.043C168.817,51.472,169.385,52.933,169.385,54.719z"/>
		<path fill="#FFFFFF" d="M182.66,46.599h-4.467v8.812c0,2.272,0.771,3.371,2.355,3.371c0.689,0,1.299-0.082,1.787-0.205l0.08,3.045
			c-0.771,0.285-1.867,0.487-3.166,0.487c-1.584,0-2.884-0.487-3.736-1.502c-0.893-0.975-1.381-2.559-1.381-4.831v-9.095h-2.678
			v-3.045h2.678v-3.371l3.939-1.176v4.547h4.465C182.66,43.555,182.66,46.599,182.66,46.599z"/>
		<path fill="#FFFFFF" d="M202.719,52.526c0,2.763-0.771,5.036-2.355,6.822c-1.663,1.867-3.855,2.76-6.615,2.76
			c-2.683,0-4.752-0.893-6.336-2.68c-1.584-1.785-2.355-3.938-2.355-6.699c0-2.762,0.771-5.155,2.479-6.901
			c1.582-1.785,3.857-2.68,6.616-2.68c2.681,0,4.834,0.895,6.416,2.68C201.906,47.613,202.719,49.766,202.719,52.526z
			 M198.535,52.648c0-1.664-0.404-3.044-1.096-4.344c-0.895-1.503-2.071-2.191-3.653-2.191c-1.584,0-2.883,0.688-3.655,2.191
			c-0.688,1.176-1.096,2.68-1.096,4.344c0,1.665,0.407,3.045,1.096,4.264c0.895,1.504,2.071,2.192,3.655,2.192
			c1.582,0,2.761-0.688,3.653-2.192C198.17,55.816,198.535,54.313,198.535,52.648z"/>
		<path fill="#FFFFFF" d="M215.752,47.127c-0.406-0.082-0.771-0.082-1.3-0.082c-1.381,0-2.479,0.488-3.247,1.584
			c-0.689,0.976-0.976,2.193-0.976,3.572v9.502h-4.06V49.238c0-2.07-0.082-3.938-0.205-5.728h3.451l0.082,3.453h0.079
			c0.407-1.179,1.099-2.192,1.991-2.882c0.893-0.691,1.867-0.977,2.883-0.977c0.405,0,0.689,0,0.975,0.082
			C215.752,43.271,215.752,47.127,215.752,47.127z"/>
		<path fill="#FFFFFF" d="M233.82,51.757c0,0.688,0,1.298-0.083,1.786H221.68c0,1.785,0.606,3.168,1.785,4.14
			c0.975,0.894,2.355,1.301,3.938,1.301c1.786,0,3.45-0.284,4.831-0.896l0.609,2.762c-1.666,0.771-3.736,1.1-6.01,1.1
			c-2.761,0-5.033-0.773-6.617-2.479c-1.586-1.664-2.354-3.856-2.354-6.617s0.769-5.034,2.272-6.819
			c1.582-1.99,3.652-2.884,6.334-2.884c2.558,0,4.547,0.976,5.928,2.884C233.209,47.613,233.82,49.564,233.82,51.757z
			 M229.963,50.781c0-1.178-0.203-2.273-0.771-3.048c-0.689-1.096-1.786-1.663-3.168-1.663c-1.298,0-2.354,0.609-3.166,1.663
			c-0.689,0.896-1.098,1.87-1.178,3.167L229.963,50.781L229.963,50.781z"/>
	</g>
	<g>
		<g>
			<path fill="#FFFFFF" d="M95.692,21.142c0,2.192-0.69,3.856-1.99,5.035c-1.178,0.975-2.965,1.583-5.237,1.583
				c-1.097,0-2.07,0-2.883-0.08V15.539c1.094-0.205,2.191-0.285,3.37-0.285c2.192,0,3.734,0.488,4.831,1.381
				C95.082,17.649,95.692,19.151,95.692,21.142z M93.621,21.223c0-1.502-0.406-2.557-1.178-3.37
				c-0.771-0.772-1.867-1.178-3.371-1.178c-0.607,0-1.177,0-1.583,0.082v9.175c0.204,0,0.69,0.082,1.38,0.082
				c1.502,0,2.682-0.407,3.452-1.3C93.133,23.902,93.621,22.806,93.621,21.223z"/>
			<path fill="#FFFFFF" d="M106.776,23.09c0,1.38-0.406,2.478-1.179,3.371c-0.771,0.893-1.866,1.38-3.246,1.38
				c-1.301,0-2.355-0.406-3.167-1.3c-0.772-0.894-1.177-1.988-1.177-3.248c0-1.381,0.404-2.478,1.177-3.37
				c0.771-0.894,1.868-1.298,3.247-1.298c1.301,0,2.354,0.404,3.168,1.298C106.45,20.613,106.776,21.711,106.776,23.09z
				 M104.786,23.09c0-0.771-0.202-1.502-0.487-2.07c-0.404-0.689-0.973-1.097-1.785-1.097c-0.813,0-1.381,0.407-1.787,1.097
				c-0.405,0.607-0.486,1.299-0.486,2.191c0,0.771,0.203,1.503,0.486,2.072c0.406,0.689,0.974,1.096,1.787,1.096
				c0.812,0,1.38-0.405,1.785-1.096C104.584,24.674,104.786,23.983,104.786,23.09z"/>
			<path fill="#FFFFFF" d="M121.678,18.666l-2.762,8.891h-1.785l-1.178-3.857c-0.285-0.975-0.486-1.867-0.691-2.883l0,0
				c-0.202,0.975-0.405,1.99-0.69,2.883l-1.177,3.857h-1.868l-2.681-8.891h2.072l0.975,4.263c0.203,0.974,0.404,1.987,0.607,2.883
				l0,0c0.082-0.771,0.406-1.667,0.69-2.883l1.3-4.263h1.583l1.179,4.14c0.283,0.974,0.485,1.989,0.689,2.964h0.081
				c0.082-0.895,0.284-1.868,0.608-2.964l1.098-4.14H121.678L121.678,18.666z"/>
			<path fill="#FFFFFF" d="M131.868,27.557h-1.991V22.4c0-1.584-0.607-2.355-1.785-2.355c-0.609,0-1.096,0.205-1.381,0.69
				c-0.406,0.406-0.607,0.976-0.607,1.503v5.196h-1.95v-6.212c0-0.771,0-1.584-0.082-2.557h1.787l0.082,1.379h0.08
				c0.202-0.407,0.61-0.771,0.976-1.098c0.486-0.283,1.176-0.486,1.787-0.486c0.77,0,1.501,0.285,2.069,0.771
				c0.69,0.69,0.975,1.665,0.975,2.966L131.868,27.557L131.868,27.557z"/>
			<path fill="#FFFFFF" d="M137.391,27.557h-1.99V14.605h1.99V27.557z"/>
			<path fill="#FFFFFF" d="M148.961,23.09c0,1.38-0.404,2.478-1.178,3.371c-0.771,0.893-1.865,1.38-3.246,1.38
				c-1.301,0-2.355-0.406-3.168-1.3c-0.771-0.894-1.177-1.988-1.177-3.248c0-1.381,0.403-2.478,1.177-3.37
				c0.772-0.894,1.867-1.298,3.246-1.298c1.303,0,2.355,0.404,3.168,1.298C148.637,20.613,148.961,21.711,148.961,23.09z
				 M146.973,23.09c0-0.771-0.203-1.502-0.487-2.07c-0.405-0.689-0.976-1.097-1.786-1.097c-0.771,0-1.38,0.407-1.787,1.097
				c-0.404,0.607-0.488,1.299-0.488,2.191c0,0.771,0.205,1.503,0.488,2.072c0.407,0.689,0.975,1.096,1.787,1.096
				c0.771,0,1.381-0.405,1.786-1.096C146.769,24.674,146.973,23.983,146.973,23.09z"/>
			<path fill="#FFFFFF" d="M158.543,27.557h-1.787l-0.08-0.975h-0.08c-0.61,0.771-1.504,1.177-2.559,1.177
				c-0.894,0-1.503-0.283-2.072-0.771c-0.486-0.488-0.688-1.098-0.688-1.787c0-1.097,0.485-1.869,1.38-2.479
				c0.895-0.607,2.193-0.893,3.857-0.893v-0.203c0-1.178-0.608-1.785-1.867-1.785c-0.893,0-1.665,0.201-2.273,0.689l-0.406-1.3
				c0.771-0.487,1.867-0.771,3.045-0.771c2.356,0,3.451,1.177,3.451,3.654v3.248C158.42,26.379,158.543,27.068,158.543,27.557z
				 M156.555,24.593v-1.382c-2.192,0-3.25,0.609-3.25,1.787c0,0.487,0.082,0.771,0.408,1.097c0.283,0.203,0.607,0.407,0.975,0.407
				c0.363,0,0.893-0.082,1.177-0.407c0.405-0.283,0.608-0.608,0.69-1.097C156.555,24.795,156.555,24.674,156.555,24.593z"/>
			<path fill="#FFFFFF" d="M169.791,27.557h-1.787l-0.082-1.38h-0.08c-0.609,1.096-1.502,1.665-2.883,1.665
				c-1.098,0-1.99-0.406-2.681-1.301c-0.69-0.893-1.095-1.987-1.095-3.246c0-1.504,0.404-2.559,1.177-3.451
				c0.771-0.771,1.664-1.301,2.761-1.301c1.178,0,2.069,0.406,2.477,1.179l0,0v-5.156h1.988v10.556
				C169.791,26.054,169.791,26.867,169.791,27.557z M167.719,23.902V22.4c0-0.283,0-0.486-0.08-0.609
				c-0.08-0.487-0.406-0.894-0.69-1.178c-0.405-0.283-0.771-0.486-1.299-0.486c-0.69,0-1.3,0.285-1.787,0.894
				c-0.405,0.608-0.608,1.38-0.608,2.274c0,0.893,0.203,1.582,0.608,2.191c0.407,0.608,0.976,0.893,1.787,0.893
				c0.69,0,1.178-0.202,1.583-0.689C167.639,24.957,167.719,24.471,167.719,23.902z"/>
			<path fill="#FFFFFF" d="M186.803,23.09c0,1.38-0.405,2.478-1.178,3.371c-0.771,0.893-1.867,1.38-3.248,1.38
				c-1.3,0-2.354-0.406-3.168-1.3c-0.771-0.894-1.176-1.988-1.176-3.248c0-1.381,0.404-2.478,1.176-3.37
				c0.772-0.894,1.868-1.298,3.248-1.298c1.301,0,2.355,0.404,3.168,1.298C186.396,20.613,186.803,21.711,186.803,23.09z
				 M184.731,23.09c0-0.771-0.202-1.502-0.485-2.07c-0.406-0.689-0.976-1.097-1.789-1.097c-0.812,0-1.38,0.407-1.785,1.097
				c-0.404,0.607-0.487,1.299-0.487,2.191c0,0.771,0.202,1.503,0.487,2.072c0.405,0.689,0.975,1.096,1.785,1.096
				c0.813,0,1.383-0.405,1.789-1.096C184.529,24.674,184.731,23.983,184.731,23.09z"/>
			<path fill="#FFFFFF" d="M197.358,27.557h-1.99V22.4c0-1.584-0.606-2.355-1.786-2.355c-0.607,0-1.096,0.205-1.38,0.69
				c-0.405,0.406-0.608,0.976-0.608,1.503v5.196h-1.99v-6.212c0-0.771,0-1.584-0.079-2.557h1.785l0.081,1.379h0.082
				c0.203-0.407,0.607-0.771,0.974-1.098c0.487-0.283,1.177-0.486,1.787-0.486c0.772,0,1.504,0.285,2.069,0.771
				c0.69,0.69,0.976,1.665,0.976,2.966v5.358L197.358,27.557L197.358,27.557z"/>
			<path fill="#FFFFFF" d="M210.719,20.125h-2.193v4.346c0,1.098,0.404,1.665,1.177,1.665c0.407,0,0.691,0,0.894-0.082l0.082,1.503
				c-0.406,0.081-0.894,0.203-1.584,0.203c-0.771,0-1.381-0.203-1.867-0.689c-0.407-0.488-0.691-1.299-0.691-2.354V20.25h-1.297
				v-1.504h1.297v-1.664l1.991-0.608v2.192h2.192V20.125L210.719,20.125z"/>
			<path fill="#FFFFFF" d="M221.192,27.557h-1.991v-5.035c0-1.583-0.607-2.355-1.785-2.355c-0.894,0-1.582,0.488-1.867,1.381
				c-0.082,0.203-0.082,0.406-0.082,0.691v5.317h-1.987V14.604h1.987v5.317l0,0c0.608-0.975,1.502-1.502,2.68-1.502
				c0.771,0,1.504,0.285,2.072,0.771c0.689,0.689,0.975,1.665,0.975,2.965C221.192,22.318,221.192,27.557,221.192,27.557z"/>
			<path fill="#FFFFFF" d="M231.952,22.724c0,0.407,0,0.692-0.081,0.896h-5.929c0,0.893,0.285,1.582,0.894,1.988
				c0.487,0.407,1.178,0.609,1.99,0.609c0.893,0,1.664-0.081,2.354-0.405l0.285,1.38c-0.895,0.405-1.869,0.608-2.965,0.608
				c-1.381,0-2.478-0.406-3.246-1.179c-0.772-0.771-1.179-1.867-1.179-3.248c0-1.379,0.405-2.477,1.097-3.369
				c0.771-0.975,1.787-1.381,3.045-1.381c1.259,0,2.273,0.488,2.883,1.381C231.748,20.613,231.952,21.629,231.952,22.724z
				 M230.084,22.197c0-0.609-0.082-1.098-0.406-1.502c-0.284-0.609-0.893-0.771-1.582-0.771c-0.69,0-1.178,0.285-1.586,0.771
				c-0.281,0.405-0.486,0.975-0.607,1.584C226.022,22.197,230.084,22.197,230.084,22.197z"/>
		</g>
	</g>
</g>
</svg>
